<svg xmlns="http://www.w3.org/2000/svg" viewBox="0 0 881.95 414.95"><defs><style>.cls-1{fill:#0031cc;}.cls-2{font-size:28.51px;font-family:OCRAExtended, OCR A Extended;}.cls-2,.cls-6,.cls-7{fill:#fff;}.cls-3{fill:#e03a3e;stroke:#0031cc;stroke-miterlimit:10;stroke-width:7px;}.cls-4{fill:#0097a6;}.cls-5{fill:#003279;}.cls-7{font-size:21.99px;font-family:Montserrat-Bold, Montserrat;font-weight:700;}.cls-8{letter-spacing:0em;}.cls-9{letter-spacing:-0.01em;}</style></defs><g id="Layer_2" data-name="Layer 2"><g id="Layer_1-2" data-name="Layer 1"><path class="cls-1" d="M153,65l0,0,0,0L153,65Z"/><text class="cls-2" transform="translate(44.9 409.91)">Revitalizing Culture and Tourism in Tech Realm</text><path class="cls-1" d="M443.52,153.92h-2.27v-1.58h-2v-1.6h-5.44v-4h-.6v-.86h-.25V121.64h.25V121h.52v-4H435v-2.32h-.81v-1.82h.42a40.67,40.67,0,0,1-7.37-13.46H399.24v-6.5h2.67V90.72h-1.26V88.15h-.59v-.5h0V86L397,84.63a20.66,20.66,0,0,0-14.59-19.56V63.52h.27v-1h-.54a.39.39,0,0,0-.32-.19.46.46,0,0,0-.19.08,6.84,6.84,0,0,0-10.36-.21.36.36,0,0,0-.29-.15.41.41,0,0,0-.41.41v.06h-.43v1h.27V65a20.32,20.32,0,0,0-13,11.61,20.71,20.71,0,0,0-1.68,8L352.56,86v2.14H352v2.57h-1.24v2.14h2.67v6.5H322.67V98.09h-6.55v11.09h-1.41V111H316v1.82h2.39v1.82h-.81V117h1.25v4h.52v.68h.25v24.24h-.25v.86h-.6v4h-5.44v1.6h-2v1.58h-2.27v1.59H307v1.59H445.57v-1.59h-2.05Zm-41.65-34.28h-.56v.5h.56V147.2h-.56v.5h.56V148h-.27a1,1,0,0,0-1,.77h-.3v2H399v-.05h.26v-3.92h-.06V117.65h0V117h1.1v2h.46a1,1,0,0,0,.88.55h.27Zm20.19,0h-.56v.5h.56V147.2h-.56v.5h.56V148h-.27a1,1,0,0,0-1,.77h-.31v2h-2.35V146.4h.24v-1.15h-.24v-.42H418a.74.74,0,0,0,.33-.6.75.75,0,1,0-1.49,0,.73.73,0,0,0,.32.6H417v.42h-6.22v-.42h-.15a.74.74,0,0,0,.33-.6.75.75,0,0,0-1.5,0,.74.74,0,0,0,.33.6h-.15v.42h-.42v1.15h.42v4.34h-2.9v-2h-.31a1,1,0,0,0-.95-.77h-.43v-.27h.55v-.5h-.55V120.14h.55v-.5h-.55v-.13h.43a1,1,0,0,0,.88-.55h.3v-2h13.75v2h.47a1,1,0,0,0,.88.55h.27Zm6,26.24h-.25v.86h-.45v4H427v-2h-.31a1,1,0,0,0-1-.77h-.43v-.27h.56v-.5h-.56V120.14h.56v-.5h-.56v-.13h.43a1,1,0,0,0,.88-.55h.31v-2h.39v4h.52v.68H428Z"/><path class="cls-1" d="M200.5,146.41h1.19v3.85h-1.19v1.16q12.33-.19,24.65-.35c51.46-.68,102.93-1.12,154.36-3v-.31h1.3v-1.65h-.38v-1.64h-2v-1.88h.94v-.91h-.26v-.95h0a.3.3,0,0,0,.31-.3v0a.31.31,0,0,0-.09-.21.29.29,0,0,0-.22-.09H379l-.08-.13a1.74,1.74,0,0,0-.14-.27c-.09-.14-.19-.27-.28-.4a7.5,7.5,0,0,1-.49-.68,6.19,6.19,0,0,1-.45-.87,4.23,4.23,0,0,1-.22-1.77.87.87,0,0,0-.2-.54h0a.45.45,0,0,0-.13-.11s0-.05,0-.08,0,0,0,0a.24.24,0,0,0-.07-.16.28.28,0,0,0-.17-.07h-.12a.08.08,0,0,1,0,0h0a.18.18,0,0,0-.18-.18h-.4v-.11h.13a.21.21,0,0,0,.2-.21.2.2,0,0,0-.06-.14.21.21,0,0,0-.15-.07h-.12v-.34h0l.05-.06a.71.71,0,0,0,.17-.42h0a1.13,1.13,0,0,0-.1-.34.09.09,0,0,0,0,0l-.14-.29a1.5,1.5,0,0,0-.09-.18l-.14-.26a.65.65,0,0,1-.09-.16l-.12-.18a5.19,5.19,0,0,0-.68,1.45.67.67,0,0,0,.22.5v.36h-.12a.2.2,0,1,0,0,.4h.12v.12h-.4a.18.18,0,0,0-.18.18s0,0,0,.06h-.13a.24.24,0,0,0-.25.23.25.25,0,0,0,.06.14c-.05,0-.11,0-.15.08a.87.87,0,0,0-.2.54,4.11,4.11,0,0,1-.23,1.77,5.79,5.79,0,0,1-.95,1.55,3.74,3.74,0,0,0-.49.8h-.12a.3.3,0,0,0-.3.31h0a.3.3,0,0,0,.3.31h0v.94H372v.92h.94v.54a7.84,7.84,0,0,1-1.95-.38,11.8,11.8,0,0,1-3.74-2.15v-.48h2.54v-3.22h-1.26v-.8h-1.44v-1.82H364.8v-.19h-1v-1.35h.06a.51.51,0,0,0,.52-.51v0a.55.55,0,0,0-.53-.53h0l1.09-1.38h2.17v-2.77l9.77-12.4h1.65l3.52-4.93h-2.92l-1.89,2.63L329.88,85.5h2.46V83.2H331V82.1h-1.22v-3H331v-2.2h-1.22V74h0v-.41l1.69-.84h0l.78-.39h0l1.26-.63h0l1-.51h0l1.26-.63h0l1-.51h0l1.26-.63h0l1-.51h0l1.26-.63h0l1-.5h0l1.26-.63h0l1-.51h0l1.26-.63h0l1-.51h0l1.26-.63h0l1-.51h0l1.26-.63h0l2.17-1.09h3v-2h1.31V57.83h.85l2.63-3.69h-2.18l-1.44,2L324,40.06h-.45v-1.5h-.47V38h-.32v-.5h.33V37h-.33v-.5h.79V35.2h-1.5a3.1,3.1,0,0,0-1-2.28c0-.07.09-.13.09-.21a.56.56,0,0,0-.38-.51,1.09,1.09,0,0,0,.07-.3h.05V31.3h-.11a1.5,1.5,0,0,0-1.12-1c-.17-.25-.36-.5-.54-.73a11.45,11.45,0,0,1-1.85-3,7.44,7.44,0,0,1-.44-3.35,1.69,1.69,0,0,0-.4-1,1,1,0,0,0-.81-.38v-.14h.53V21h.65a.45.45,0,0,0,.45-.44v0a.42.42,0,0,0-.15-.32.6.6,0,0,0,.34-.52.65.65,0,0,0-.65-.65h-1.58v-.77h-.3v-.78h.7v-.53h-.44a.48.48,0,0,0,.19-.56,2,2,0,0,0-.31-.57,1.75,1.75,0,0,0,.33-.58.48.48,0,0,0,0-.39h.27v-.52h-.43a.48.48,0,0,0,.19-.56A2,2,0,0,0,314,12.49a.72.72,0,0,0,.21-.51v-.65a.76.76,0,0,0-.52-.71v-.44h-.13V6.9h.13V6.65h.7V6.4h.42l-.11-.57-.06-.33h.16l-.13-.69h0l-.06-.34h.06L314.4,2.8h0a.68.68,0,0,0-.48-.51A.49.49,0,0,0,314,2.1a.51.51,0,0,0-.23-.43V1.25h-.12V0h-.21V1.25h-.12v.42a.55.55,0,0,0-.23.43.44.44,0,0,0,.08.2.74.74,0,0,0-.42.5h0l-.33,1.67h.07l-.07.34h0l-.14.68h.11l-.18.9h.42v.26h.69V6.9h.14v3.28h-.13v.44a.76.76,0,0,0-.51.71V12a.72.72,0,0,0,.21.51,2,2,0,0,0-1.35,1.26.49.49,0,0,0,.2.56h-.44v.52h.34a.49.49,0,0,0-.05.39,1.83,1.83,0,0,0,.3.55,2,2,0,0,0-.35.6.48.48,0,0,0,.19.56h-.44v.53H312v.77h-.29V19h-1.51a.65.65,0,0,0-.65.65.59.59,0,0,0,.33.52.45.45,0,0,0-.15.33h0a.45.45,0,0,0,.45.45h.59v.67h.54v.14a1.05,1.05,0,0,0-.73.38,1.69,1.69,0,0,0-.4,1,7.51,7.51,0,0,1-.45,3.35,11.6,11.6,0,0,1-1.87,3c-.19.23-.38.48-.55.73a1.52,1.52,0,0,0-1.12,1H306v.59h.14a1.55,1.55,0,0,0,.06.31.56.56,0,0,0-.38.5c0,.09.06.15.09.22a3.07,3.07,0,0,0-1,2.28h-1.51v1.34h.79V37h-.33v.52h.33V38h-.34v2h-.46L271.55,56l-1.42-2h-2.19l2.62,3.7h.87v2.84h1.31v2h3l.84.42h0l.91.46h0l.41.21h0l1.26.64h0l1,.51h0l1.25.64h0l1,.52h0l1.26.64h0l1,.52h0l1.25.63h0l1,.51h0l1.26.63h0l1,.51h0l1.25.63h0l1,.51h0l1.26.63h0l1,.51h0l1.25.64h0l.77.39h0l1.68.85v3.3h-1.21V79h1.22v3h-1.21v1.1h-1.37v2.3h2.46L253.42,110.5,252,109.21l-.29-.27h-1.17v-.68h0v-1.08h2.72v-2.41h-.92v-2.42h.09a.8.8,0,0,0,.8-.8v0a.71.71,0,0,0-.07-.32.8.8,0,0,0-.73-.49h-.31a10,10,0,0,0-1.27-2.06l0,0c-.52-.68-.92-1.2-1.3-1.8a16.86,16.86,0,0,1-1.16-2.28,10.94,10.94,0,0,1-.58-4.63,2.24,2.24,0,0,0-.34-1.15c-.06-.1-.13-.19-.2-.29a1.14,1.14,0,0,0-.32-.3A.62.62,0,0,0,247,88s0,0,0-.08a.57.57,0,0,0-.19-.42.64.64,0,0,0-.45-.19h-.31a.36.36,0,0,0,0-.1s0,0,0,0a.44.44,0,0,0-.14-.34.49.49,0,0,0-.34-.15h-1v-.3h.32a.53.53,0,0,0,.38-.91.5.5,0,0,0-.38-.17h-.32v-.91a1.74,1.74,0,0,0,.61-1.32,6.39,6.39,0,0,0-.84-2.17l0-.07-.25-.45-.08-.14-.21-.36a.64.64,0,0,1-.08-.14l-.15-.24s-.05-.07-.06-.1l-.09-.14S241.63,82,241.63,83a1.81,1.81,0,0,0,.6,1.33v.91h-.32a.53.53,0,0,0-.53.53.52.52,0,0,0,.53.54h.32v.31h-1a.48.48,0,0,0-.48.47c0,.06.05.11.07.16h-.34a.62.62,0,0,0-.64.59.58.58,0,0,0,.12.28,1.14,1.14,0,0,0-.35.31,2.27,2.27,0,0,0-.54,1.42,10.84,10.84,0,0,1-.6,4.62,15.85,15.85,0,0,1-2.48,4.08,10,10,0,0,0-1.31,2.1h-.3a.8.8,0,0,0-.8.8v0a.8.8,0,0,0,.8.8h.09v2.42h-.89v2.42h2.72v1.09h0v.68h-1.17L200.8,139.78h-2v3.76h1.74Z"/><path class="cls-1" d="M297.32,108.79h-.05c-.69,0-1.39-.08-2.09-.13l-1-.09c-.37,0-.75-.07-1.12-.12l-1.37-.16-.41-.06,2.25-.27h0l-.51-1.83-5.64,1.46c-.72-.14-1.46-.3-2.19-.47l-.72-.16-.48-.12,1.5-.44h0l-.26-1.86-4.85,1.36-.27-.07c-.67-.19-1.35-.4-2-.61l-.88-.28,1.55-.45h0l-.7-1.86-4,1.24c-.87-.31-1.75-.64-2.64-1l1.31-.12h0l-.19-1.95-4.93.52-2-.87,1.24-.12h0l-.2-1.95-4.49.47-1-.48-1.57-.77-.33-.17,1.53-.14h0l-.19-2-4.48.47-.76-.41-1.3-.7-.58-.33,1.68-.15h0l-.2-2-4.39.46-.51-.29-.88-.52-1.06-.63,1.25,0,.11-2h0l-4.61,0q-1.32-.82-2.64-1.68l2.09-.22h0L244,85.43l-4.38.53q-2-1.33-4-2.74l2.09,1.22,3.06-.49h0l-.59-2-5.17.88c-.74-.52-1.49-1-2.24-1.58l.18.11,3.07-.49h0l-.59-2-4.86.82-.77-.56-.69-.51c-.27-.19-.53-.39-.79-.59l3.1-.49h0l-.43-2-5,.84c-.73-.54-1.45-1.09-2.18-1.65l3-.28h0l-.42-2-4.91.51L219.16,71l2.93-.35h0l-.23-2L217,69.2l-.75-.6-1.6-1.32,2.19.06.11-2h0l-4.65-.06-2-1.64,2.91-.08h0L213,61.53l-5,.17c-.66-.56-1.3-1.12-1.94-1.68l3.09-.08h0L209,57.87l-5.1.18-1.73-1.55,3-.07h0l-.23-2.07-5,.18-1.74-1.6.29.24,3.12-.08h0L201.4,51l-5.05.17-1.47-1.37,2.43-.31h0l-.19-2.07-4.37.36-1-1,2.41-.29h0L194,44.46l-4.34.34-1.32-1.29.22.18,2.55-.3h0l-.17-2.07-4.47.35-1.24-1.25,2.49-.1h0l-.27-2-4.23.14L181.83,37l2.44-.11h0L184,34.81l-4.13.14-.65-.69.18-.69h0l-1.13-.3c-1.1-1.17-2-2.15-2.74-2.93l.07-.5h.34V27.09h-.2V25.45h-.2V23.9h-.37V22.51h-.28v-.17H175v-.44h-.93l0-.06-1.33-5h.31v-.43h-.15v-.59h-.27V16h-.21l-.05-.26h0l0-.14h.07l-.07-.31h0l0-.14h0l-.14-.76h0a.36.36,0,0,0,0-.11l0-.05,0,0h.08s0,0,0-.05h0s0,0,0-.05h0v0l0,0s0,0,0-.05h0a.33.33,0,0,0,0-.14h0a.2.2,0,0,0,0-.11,0,0,0,0,0,0,0,.17.17,0,0,0-.06-.06v-.19h-.06v-.49h-.09v.5h-.06v.18a.24.24,0,0,0-.11.19h0a.25.25,0,0,0,.06.15h0a.38.38,0,0,0-.18.25h.08a.32.32,0,0,0-.12.2h0l-.15.75h0l0,.15h0l-.06.31h.05l0,.13v0l-.05.26H171v-.14h-.27v.53h-.15v.43h.28l-1.35,5.08h-1v.43h.17v.17h-.3v1.4h-.37v1.54h-.2v1.64h-.2v2.76H168l.05.34A418,418,0,0,1,127.21,68.6c-14.32,11.69-28,21-40.76,27.68q-6,3.12-11.62,5.48h0c-.89.37-1.78.72-2.66,1.06l-.27.11c-1,.37-1.93.73-2.88,1.07l-.12,0h0l-.91.31c-.65.22-1.3.44-1.94.64l-1.31.41-1.73.51-1.34.37c-.57.16-1.13.3-1.69.43L58.7,107c-.77.18-1.53.33-2.28.48-.57.12-1.13.22-1.69.32,0,.11,0,.22,0,.34h0l1.51-.27c.82-.16,1.65-.34,2.48-.53.41-.09.83-.2,1.25-.31.58-.14,1.16-.28,1.74-.44l1.32-.37c.59-.16,1.17-.34,1.77-.52l1.29-.4,2-.66.87-.29,1,2.83,2.18-.55h0l-1-3,.33-.12,2.35-.93.75-.29,1.64,2.8,2-.88h0l-1.63-2.77.63-.28,1-.45L81,99.41l1.63,2.78,2-.88h0L83,98.44l.31-.16c.66-.32,1.32-.66,2-1,.41-.21.81-.4,1.22-.62l1.61,2.77,2-.87h0l-1.7-2.92.31-.17c1.11-.6,2.22-1.23,3.34-1.86l.37-.21,2.19,2.51,1.81-1.18h0l-2.12-2.42c.37-.21.75-.45,1.12-.67l1.38-.83.5-.3L99,93.1l2-.93h0L99.2,89.34q1.2-.75,2.4-1.53l2.31,2.48,1.78-1.22h0l-2.27-2.43.44-.3.37-.25c.74-.48,1.47-1,2.21-1.47l1.84,2.52,1.92-1h0l-2-2.7.55-.38.84-.59,1.21-.85,1.86,2.53,1.92-1h0l-2-2.73,1.37-1,.36-.27.55-.39L117.39,81l1.68-1.33h0l-2.46-2.31,2.86-2.17,2,2.4,1.84-1.15h0l-2.16-2.56.62-.49,1-.78,1.16-.92,2.17,2.44,1.81-1.19h0l-2.3-2.58,1.85-1.49,1.13-.93,2.23,2.49,1.8-1.19h0l-2.34-2.61-.47.31c.91-.76,1.81-1.51,2.7-2.27l2.76,2.15,1.53-1.45h0l-2.66-2.08,1.7-1.47,2.46,2.41L140,62.91h0l-2.53-2.48-.5.38,1.88-1.65,2.81,2.18,1.52-1.45h0l-2.74-2.14,1.77-1.59,3.1,1.88,1.31-1.61h0l-2.83-1.71,2.14-2L148.55,55l1.6-1.39h0l-2.63-2.26c.84-.79,1.66-1.56,2.46-2.33l2.39,2.25,1.68-1.33h0l-2.53-2.38,1.87-1.8,3,1.91L157.77,46h0l-2.87-1.8,2.13-2.1,2.53,1.6c-1.46,2.07-3.05,4.29-4.76,6.62-.14.18-.28.37-.41.56l-2,2.67-.58.76c-.63.84-1.28,1.68-1.93,2.53l-.7.91c-.54.7-1.09,1.39-1.64,2.09-.36.47-.73.93-1.11,1.4l-1.22,1.54-1.11,1.36c-.57.69-1.13,1.38-1.71,2.07l-1.09,1.32-.9,1.06-.93,1.09c-.44.52-.89,1-1.33,1.54l-1.26,1.45c-.67.76-1.35,1.51-2,2.26-.39.44-.79.87-1.18,1.3l-1.34,1.44c-.43.47-.87.93-1.3,1.39-.63.66-1.25,1.31-1.87,1.94-.37.39-.74.76-1.11,1.14q-.82.84-1.65,1.65c-.44.44-.87.86-1.31,1.28l-1.54,1.48-1,.93c-.7.65-1.39,1.28-2.08,1.9l-.91.81c-.54.47-1.06.93-1.59,1.38l-.59.51V92h0v-.1h-.22v-.19h-.16a2.91,2.91,0,0,0-1.94-1.81v-.12H115v-.37h.21V89h-.1l-.29-1h-.09a.34.34,0,0,0-.34-.34.34.34,0,0,0-.34.34H114l-.3,1h-.1v.39h.21v.37h-.1v.12a2.93,2.93,0,0,0-1.94,1.81h-.16v.19h-.22V92h0v.29h.16v.88H111v.46h.4v1.25l-2.16.13h-.66v.71h.85v2.65l-.36.25-1.74,1.19-.82.54c-.5.33-1,.64-1.5,1l-.71.44v-.17h.17v-.21h-.26v-.39h.07v-.14h0v0h-.09v-.09h-.07a1.28,1.28,0,0,0-.85-.8V99.8h0v-.16h.09v-.18h0l-.13-.45h0a.15.15,0,0,0-.3,0h0l-.13.45h-.05v.17h.09v.16h0v.06a1.28,1.28,0,0,0-.85.8h-.07v.09h-.09v0h0v.14h.07v.39h-.27v.2h.18v.54h-1l-1.37,2.31-.57.23h0l0,.09-.16.08c-.51.24-1,.47-1.51.68l-.51.24c-.64.27-1.28.52-1.91.76l-.83.29-1.09.38-1,.29-.92.27-1,.25-.83.19q-.52.12-1,.21c-.24,0-.48.08-.72.12s-.74.12-1.1.16l-.59.07c-.4,0-.8.08-1.19.1h-.15c-.5,0-1,0-1.49,0v.34h0c.49,0,1,0,1.48,0h.18c.39,0,.79-.07,1.19-.11l.61-.06c.36,0,.73-.1,1.1-.16l.74-.12,1.06-.21.83-.19,1-.26.93-.27,1-.29,1.09-.38.85-.3c.59-.22,1.18-.46,1.78-.71l.63-.27,1.55-.7.15-.07-.22.38h.47l1.19,2.19.38-.15V110H242.4v-4.56h2l-.38-.64.22.1c.57.28,1.14.54,1.7.79l.42.19c.66.29,1.32.56,2,.81l.11,0c.69.26,1.38.51,2.06.73l.44.13c.5.16,1,.31,1.49.44l.81.21,1.08.25.93.19c.3,0,.6.11.91.15s.67.11,1,.15l.77.08,1.07.1.52,0c.39,0,.79,0,1.17,0v-.35a27.07,27.07,0,0,1-3.21-.19l-.18,0-1.42-.21-.31,0c-.44-.08-.89-.17-1.33-.27l-.36-.08-1.39-.36-.29-.07c-1.05-.3-2.12-.65-3.21-1.06l2.59-.65h0l-.52-2L246,105.3l-.26-.12c-.56-.25-1.12-.52-1.69-.8l-.35-.17-.67-1.15,1.55-.23h0l-.26-2-2.79.48v-.36h.07v-.14h0v0h-.1v-.09h-.07a1.1,1.1,0,0,0-.16-.3,1.26,1.26,0,0,0-.69-.5V99.8h0v-.16h.1v-.18h-.05l-.13-.45h0a.16.16,0,0,0,0-.11.15.15,0,0,0-.1,0h0a.14.14,0,0,0-.15.15h0l-.12.4v0H240v.17h.1v.16h0v0a1.21,1.21,0,0,0-.72.54,1.05,1.05,0,0,0-.13.26h-.07v.09H239v0h0v.14h.07v.39h-.27v.15l-.7-.44c-.35-.21-.69-.42-1-.65l-.2-.13,3-.6.07-2h0l-5.4,1-.36-.25V95.68H235V95h-.66l-.66,0v-.11h0l-1.44,0V94h0v-.39h.39v-.46h-.61v-.88h.17V92h.05v-.1h-.21v-.19h-.16a2.86,2.86,0,0,0-.29-.58,3,3,0,0,0-1-1,2.79,2.79,0,0,0-.66-.28v-.12h-.1v-.37h.21V89H230l-.3-1h-.08a.34.34,0,1,0-.68,0h-.08l-.29,1h-.11v.39h.22v.37h-.11v.12a3,3,0,0,0-1.69,1.3l-1.85,0-.33-.28-.45-.4-1-.86,2.76,0h0l-.17-2.07-4.8.07c-.65-.6-1.3-1.22-1.95-1.84l3,0h0l-.17-2.07-4.86.07-1-1-.25-.24-.35-.37,2.87.17V80.24h0l-5-.24-.61-.63-.84-.89-.48-.52,3.05.11.18-2h0l-5.14-.2-.45-.49L208,74.22l-.71-.79,1.9.34.51-1.91h0l-4.44-.74c-.55-.64-1.11-1.28-1.66-1.93l2.87.37.2-2.07h0l-5-.59c-.54-.64-1.07-1.28-1.6-1.93l3,.38.19-2.06h0l-5-.59c-.5-.61-1-1.23-1.47-1.83l2.95.37.2-2.06h0l-4.94-.58-.88-1.14,3,.39.19-2.07h0l-4.91-.58-1.07-1.41,2.49,0,.19-2.07h0l-4.39-.24L188,49.4l.1.11,2.57,0,.2-2.07h0l-4.45-.24c-.56-.77-1.1-1.53-1.62-2.27l0-.08h0l-.1,0c-.71-1-1.39-2-2-2.89l.21-.82h0l-1-.26-1.25-1.82.45-1.68h0l-2-.52c-.33-.48-.64-1-.94-1.4l.6.15.24-.9.27.28h-.07l.42.36A420.46,420.46,0,0,0,216,68.85c14.34,11.7,28.08,21,40.82,27.72,16,8.37,30.38,12.62,42.9,12.62v-.35C298.89,108.84,298.11,108.83,297.32,108.79Zm-187.88-6.72h-3.63l-.48-.58c.2-.13.4-.26.61-.38l.62-.4c.6-.38,1.21-.78,1.82-1.2l1.06,1.66Zm58.68-71.41,0,.31c-.62,1-1.4,2.16-2.33,3.57L165,34C166.28,32.64,167.32,31.52,168.12,30.66Zm-3.21,8.21h0l-1.06-.66.47-.7,1.29.64c-.54,1.18-1.12,2.44-1.74,3.77l-2-.78.85-1.23.88.55,1.34-1.58Zm-1.34-3.39,1.12.79L163.53,38,162,37.06Zm-5,5.16,2-2.07,1.8,1.13L160.75,42Zm1.37,3.29.08,0,.91-1.07,2.13.83-.77,1.62-.15.31c-.13.28-.27.55-.4.83l-2.51-1.58ZM121.63,94.32h-1.54l-.47,0-1.85-2.06.79-.68c.32-.28.64-.55,1-.84l.36-.31,1.75,1.37Zm31.61-31.25c-.26.48-.52,1-.79,1.45l-.33.6-.36.65-.06,0-.58.51-.3.27-.56.53-.29.28-.54.55-.28.29-.52.56a3.58,3.58,0,0,1-.26.29l-.5.59-.24.29-.49.6-.21.29-.48.63c-.06.09-.13.18-.19.28s-.31.43-.46.65l-.17.27c-.15.22-.3.45-.44.68l-.15.24c-.14.24-.29.48-.42.73l-.12.2-.42.77a1,1,0,0,1-.07.15l-.42.84v0a27.07,27.07,0,0,0-1.18,3h-1.8v2.11h-2.38v1h.56v3.36l-5.28.6H133V87h.53V90h-1.93l-8.18.59-1.93-1.5.47-.44,1.58-1.47.54-.5,2.27,2.22L128,87.57h0l-2.45-2.39.35-.35.93-.92c.31-.31.62-.6.92-.91l2.33,2.26,1.7-1.3h0l-2.54-2.46.36-.37.51-.54,1-1.06,3,2,1.4-1.54h0l-3-2c.14-.14.27-.3.41-.44l1.13-1.23.84-.92,2.62,2.23,1.6-1.39h0l-2.72-2.32-.7.61.57-.65,1.27-1.43.51-.58L141,73.72l1.38-1.55h0l-2.86-1.88,1.24-1.46.89-1L145,69.26l1-1.74h0L143,66.16c.2-.24.38-.47.58-.7l.76-.94.88-1.07,2.89,1.67,1.26-1.63h0l-2.85-1.64.36-.46,1.47-1.86.38-.48,3.11,1.69L153,59.08h0L150,57.41l1-1.26.3-.4.68-.89,3,1.63,1.21-1.66h0l-3-1.61c.53-.71,1-1.41,1.56-2.11l2.8,1.76,1.34-1.58h0l-2.92-1.84c.43-.58.82-1.13,1.23-1.7l.31-.42.52-.72,2.8,1.76c-1.14,2.35-2.37,4.82-3.68,7.37l0,.05c-.29.58-.59,1.16-.9,1.75l0,.08c-.91,1.76-1.86,3.54-2.83,5.34Zm4.37-1.31-.68.38-.37.21-.67.4-.36.23-.65.42-.25.17-1-.34.87-1.63.19-.35c.11-.21.22-.42.34-.63l2.92,1Zm7.47-12.31h-.48v4h.48V57.8h-1.15v1.41l-.29.08-.41.12-.76.25-.41.14c-.25.08-.5.18-.74.27l-.41.16q-.36.14-.72.3l-.4.17-.71.32-.39.19-.17.08.63-1.39h0l-3.21-1.07.48-.93.25-.48.61-1.17,3.39,1.13.82-1.83h0l-3.29-1.09c.33-.67.67-1.33,1-2l3.55,1,.69-1.86h0l-3.34-.92c.24-.49.47-1,.71-1.45l.18-.38c.17-.34.35-.7.51-1L164.75,49l.33-.64Zm1.17-5.61h-.31v1.89h-.4v1.45L162.38,46l1-2.09.74.28.54-1,1.6.53Zm.89-3.78h-.34v1.65L164.71,41c.44-.94.85-1.85,1.25-2.71l1.18.59Zm.3-3.28-.25-.12.25-.26Zm.23-.94-.46-.32.46-1Zm.4-1.45h-.35c.12-.27.23-.53.35-.79Zm.05-1.89h-.05v.14c-.35.79-.74,1.68-1.18,2.65l-.74-.53c.82-1.24,1.52-2.32,2.11-3.22l.07.49Zm.81-1.87c-.08.19-.16.39-.25.59l0-.27.29-.47Zm2-9.47-.11.22a2.35,2.35,0,0,1-.24.37h-.17v.14H170l.22-.85H171Zm.27-.52h0a.76.76,0,0,0-.16.26l0,0h-.78l.43-1.62h.54l-.14.25H171a.12.12,0,0,0-.13.12v0a.12.12,0,0,0,.13.12h0a2,2,0,0,1,.23.43s0,0,0,0a.59.59,0,0,0,.13.19A.76.76,0,0,0,171.22,20.64Zm.5-2.85a.27.27,0,0,0-.12.15h0a.73.73,0,0,0,0,.23h0v0a.43.43,0,0,0,0,.17.39.39,0,0,0-.18.34h0a0,0,0,0,0,0,0h-.05a.12.12,0,0,0-.13.12h0a.13.13,0,0,0,.13.13h0a.37.37,0,0,0,0,.11s0,0,0,0l0,.06h-.56l.64-2.41h.36Zm.41.72h0l0,0a.38.38,0,0,0-.09-.09l0,0v0a.52.52,0,0,0,0-.14s0,0,0,0h0V18h0V18h0v0l0,0h0a.05.05,0,0,0,0,0l0,0s0,0,0,0v-1h.38l.64,2.41h-.56l0,0,0-.07a.54.54,0,0,0-.05-.11h0s0,0,0,0a.11.11,0,0,0,0-.08h0a.05.05,0,0,0,0,0,0,0,0,0,0,0,0,.1.1,0,0,0-.08,0h0v0h0a.25.25,0,0,0,0-.09s0,0,0,0h0v-.05Zm.39,2.39,0-.07s0,0,0,0l0-.07h0v0l0,0v0h0l-.07-.06v0h0l0,0-.09-.05h0s0,0,0,0a.54.54,0,0,0,.09-.15l0,0h0a2.13,2.13,0,0,1,.23-.42h.06a.12.12,0,0,0,.12-.12v0h0a78674647736.28,78674647736.28,0,0,1,0-.08.09.09,0,0,0-.08,0h0a1.49,1.49,0,0,1-.14-.24h.54l.43,1.62h-.83S172.53,20.91,172.52,20.9Zm.63,1v-.13H173a1.9,1.9,0,0,1-.22-.33,2,2,0,0,1-.1-.21l-.08-.16h.82l.15.6.07.25Zm1.76,9.43h0c-.07-.16-.14-.31-.2-.46v-.22l.28.43Zm59.26,67.54.11.06.27.18,1.56,1.06.79.52,1.2.76.91.57v.06h-4.84Zm-58.71-68c.59.64,1.29,1.4,2.12,2.27l-1.06-.28c-.41-.63-.78-1.2-1.1-1.71Zm-.08,1.69-.13-.3.08-.53.64,1-.43-.12v0h-.16Zm.16,1.89v-.56c.08.18.17.37.25.56ZM190.45,64.6l-.25-.2c-.46-.34-.93-.67-1.42-1l-.22-.14c-.48-.32-1-.62-1.46-.91l-.09-.06c-.52-.3-1-.58-1.57-.85l-.29-.14c-.52-.26-1.06-.51-1.6-.74l-.23-.1c-.54-.22-1.08-.44-1.63-.63l-.12,0c-.57-.2-1.15-.37-1.73-.54l-.17-.05V57.81h-1.15V53.45H179v-4h-.48V47.62h-.46V45.73h-.4V43.84h-.31V42h-.54V40.07h-.35V38.17h-.29V36.29h-.23V34.72c1.74,3.94,4.28,9.46,7.36,15.71.06.12.12.23.17.35l.44.87h0l.07.12c.08.17.18.35.26.53l1,2,.66,1.3L187,57.7l.67,1.28c.29.55.58,1.11.88,1.66s.6,1.14.91,1.71l.91,1.67.45.85Zm-5.79-19.2c.82,1.15,1.69,2.36,2.58,3.58l0,.07c.74,1,1.51,2.06,2.3,3.13l.27.36c1.22,1.63,2.49,3.31,3.81,5l.42.53c.72.94,1.46,1.88,2.21,2.83l.57.71c1.32,1.66,2.68,3.32,4.07,5l.81,1,1,1.21c1.18,1.4,2.35,2.74,3.52,4.06l.28.33L208.14,75l.4.44c.51.57,1,1.13,1.54,1.69l.27.29q2.37,2.57,4.7,4.92l.65.66c.4.41.8.8,1.2,1.2l.79.77,1.14,1.1c.27.27.55.53.82.78l.84.81h0l.12.11.2.18c.78.72,1.54,1.41,2.3,2.09l.78.69c.78.69,1.55,1.36,2.32,2l.23.2v.24h-.61v.46h.4v.89l-2.64-.16H222v-3h.68v-.71h-2.19L212.09,90h-2V87h.52v-.71h-.52l-5.23-.61v-.95l.71-1.41h0l-.71-.25v-.73h.56v-1h-2.38V79.28h-.39l-1.61-.57c-.11-.31-.22-.61-.34-.91l-.12-.28c-.19-.48-.4-1-.63-1.42,0-.09-.09-.17-.13-.26l-.09-.19.29-.58h0l-.74-.26-.21-.38,0,0c-.27-.47-.56-.94-.86-1.41l-.16-.26-.45-.65.54-1.07h0l-1.78-.6-.44-.54,0,0c-.36-.44-.74-.86-1.13-1.28l-.22-.24-.46-.48,1.38.41.64-2h0l-4.89-1.4L190,62.66l2.88.85.63-2h0l-4.87-1.4c-.35-.66-.7-1.32-1-2l2.74.82.64-2h0l-4.69-1.35c-.22-.42-.44-.84-.65-1.27l2.65.79.64-2h0l-4.56-1.31c-.27-.53-.53-1.06-.78-1.58l2.32.41.64-2h0l-4.2-.92-.6-1.25,2.4.42Zm-2.29-2.25.2-.72c.52.74,1.05,1.51,1.61,2.29l-3.59-.78-.67-1.42Zm-1.94-3.81.95,1.38L178.76,40l-.58-1.27Zm-1.79-2.65-1.59-.42c-.2-.44-.39-.88-.58-1.29l1.24.32Z"/><path class="cls-1" d="M239,101.58l-.09,0H239Z"/><path class="cls-1" d="M117.25,92.26h0Z"/><polygon class="cls-1" points="104.31 101.7 104.31 101.7 104.31 101.7 104.31 101.7"/><path class="cls-1" d="M307.29,102.85l-40-20.93H263V75a.72.72,0,0,0-1.43,0v7h-1.44a.24.24,0,0,0,0-.08,3.35,3.35,0,0,0-.11-.55.56.56,0,0,0,0-.12,2.83,2.83,0,0,0-.73-1.1l-.08-.07a3.65,3.65,0,0,0-.45-.32l-.06,0h0a2,2,0,0,0,.36-.53l.07-.16.06-.14h.11a.54.54,0,0,0,.37-.15.53.53,0,0,0-.37-.91h-.12a.61.61,0,0,0-.05-.12,1,1,0,0,0-.08-.18,1.94,1.94,0,0,0-.33-.51h0l-.41-3.84h.07a.28.28,0,0,0,.19-.09.29.29,0,0,0,.09-.2.28.28,0,0,0-.28-.27h-.13s0,0,0,0a.9.9,0,0,0-.6-.6h0v-.53h.75a.25.25,0,0,0,.19-.09.28.28,0,0,0,.09-.19.28.28,0,0,0-.28-.28h-.75V70.4h0l1-1.78a.28.28,0,1,0-.48-.28h0l-.84,1.46-.84-1.46a.28.28,0,0,0-.38-.1h0s0,0,0,.06-.07.06-.08.11a.26.26,0,0,0,0,.21l1,1.79,0,0v.4h-.75a.28.28,0,0,0,0,.56H257v.53h0a1,1,0,0,0-.6.59s0,0,0,0h-.12a.28.28,0,0,0,0,.56h.07l-.41,3.84a1.83,1.83,0,0,0-.35.52l-.06.15a.84.84,0,0,0-.06.14h-.11a.53.53,0,0,0-.38.16.51.51,0,0,0-.16.37.53.53,0,0,0,.53.53h.11c0,.06,0,.1.07.15s0,.09.05.13a2.18,2.18,0,0,0,.37.56l-.07,0a3,3,0,0,0-.41.29l-.12.1a2.79,2.79,0,0,0-.42.49s0,0,0,0a2.73,2.73,0,0,0-.27.54l-.06.18a3.94,3.94,0,0,0-.1.47s0,.08,0,.12h-.88V76.57A.62.62,0,0,0,253,76a.6.6,0,0,0-.43.18.62.62,0,0,0-.18.43v5.35h-.89s0,0,0-.08a2.57,2.57,0,0,0-.12-.55.56.56,0,0,0,0-.12,2.73,2.73,0,0,0-.73-1.1.27.27,0,0,0-.08-.07,3.65,3.65,0,0,0-.45-.32l-.06,0h0a1.77,1.77,0,0,0,.36-.53,1.11,1.11,0,0,0,.07-.16l.06-.14h.11a.52.52,0,0,0,.37-.15.53.53,0,0,0-.37-.91h-.11l-.06-.12c0-.07,0-.12-.07-.18a2,2,0,0,0-.34-.51h0l-.41-3.84h.07a.28.28,0,0,0,.19-.09.25.25,0,0,0,.09-.2.28.28,0,0,0-.28-.27h-.12v0a.94.94,0,0,0-.61-.6h0v-.53h.75a.31.31,0,0,0,.28-.28.28.28,0,0,0-.28-.28h-.75V70.4h0l1-1.78a.28.28,0,0,0-.48-.28h0l-.84,1.46-.84-1.46a.28.28,0,0,0-.38-.1h0s0,0-.05.06-.07.06-.08.11a.31.31,0,0,0,0,.21l1,1.79,0,0v.4h-.75a.28.28,0,0,0,0,.56h.75v.53h0a1,1,0,0,0-.6.59s0,0,0,0h-.12a.28.28,0,1,0,0,.56h.06l-.41,3.84a1.83,1.83,0,0,0-.35.52l-.06.15a.84.84,0,0,0-.06.14h-.11a.53.53,0,0,0-.38.16.51.51,0,0,0-.16.37.53.53,0,0,0,.53.53h.12a.67.67,0,0,0,.06.15l.06.13a1.76,1.76,0,0,0,.37.56l-.08,0a3,3,0,0,0-.41.29l-.12.1a2.79,2.79,0,0,0-.42.49s0,0,0,0a2.73,2.73,0,0,0-.27.54,1.21,1.21,0,0,0-.05.18,3.57,3.57,0,0,0-.11.47s0,.08,0,.12h-.88V76.6a.62.62,0,0,0-.61-.61.6.6,0,0,0-.43.18.62.62,0,0,0-.18.43v5.32h-.88a.24.24,0,0,1,0-.08,2.57,2.57,0,0,0-.12-.55.56.56,0,0,0,0-.12,2.73,2.73,0,0,0-.73-1.1.27.27,0,0,0-.08-.07,4.48,4.48,0,0,0-.44-.32l-.07,0h0a1.61,1.61,0,0,0,.36-.53,1.11,1.11,0,0,0,.07-.16.84.84,0,0,0,.06-.14h.11a.51.51,0,0,0,.53-.53.53.53,0,0,0-.53-.53h-.11a.67.67,0,0,0-.06-.12,1,1,0,0,0-.07-.18,2,2,0,0,0-.34-.51h0l-.41-3.84H241a.29.29,0,0,0,.2-.09.28.28,0,0,0-.2-.47h-.12s0,0,0,0a.94.94,0,0,0-.6-.6h0v-.53H241a.25.25,0,0,0,.2-.09.27.27,0,0,0,.08-.19.28.28,0,0,0-.28-.28h-.75V70.4h0l1-1.78a.28.28,0,0,0-.48-.28h0l-.84,1.46-.84-1.46a.28.28,0,0,0-.38-.1s0,0,0,0a.26.26,0,0,0-.06.33l1,1.79v.42h-.75a.27.27,0,0,0-.28.28.29.29,0,0,0,.28.28h.75v.53h0a.91.91,0,0,0-.59.59s0,0,0,0h-.12a.27.27,0,0,0-.28.28.29.29,0,0,0,.28.28H239l-.41,3.84a2.06,2.06,0,0,0-.35.52l-.06.15a.84.84,0,0,0-.06.14H238a.53.53,0,0,0-.38.16.54.54,0,0,0-.15.37.53.53,0,0,0,.53.53h.11a.67.67,0,0,0,.06.15l.06.13a1.76,1.76,0,0,0,.37.56l-.08,0a2.92,2.92,0,0,0-.4.29l-.13.1a3.29,3.29,0,0,0-.42.49s0,0,0,0a3.4,3.4,0,0,0-.27.54c0,.06,0,.12-.05.18a2.46,2.46,0,0,0-.1.47.53.53,0,0,0,0,.12h-1.54V75a.71.71,0,0,0-1.42,0v7h-4.33l-38,20.93h-3.94V105l-.09,0h.09v.27h2v2.8h1.07v2h2.87l3.15,7.21h-.66v1h1.58v1.6h-1.39l-1.42,1.8h-.44v1h.4l1.55,2h1.86v.17a.64.64,0,0,0,.64.64h.09v1.35h1.63v29h97.8v-29h1.63v-1.35a.65.65,0,0,0,.64-.64v-.17h1.86l1.54-2h.32v-1h-.45l-1.41-1.8H301.5v-1.6h1.41v-1h-.49l3.15-7.21h2.87v-2h.89v-2.8h2.2v-2.49Z"/><path class="cls-3" d="M51.42,117.79,16,153.18A42.78,42.78,0,0,0,3.5,183.45V298.26A42.79,42.79,0,0,0,16,328.53l35.38,35.39a42.81,42.81,0,0,0,30.27,12.54H800.26a42.81,42.81,0,0,0,30.27-12.54l35.39-35.39a42.83,42.83,0,0,0,12.53-30.27V183.45a42.81,42.81,0,0,0-12.53-30.27l-35.39-35.39a42.81,42.81,0,0,0-30.27-12.54H81.69A42.81,42.81,0,0,0,51.42,117.79Z"/><path class="cls-4" d="M130.93,269.52v16.59H61.79V196.8h67.48v16.59H82.33v19.39h41.46v16.07H82.33v20.67Z"/><path class="cls-4" d="M189.36,282.79a20.36,20.36,0,0,1-7.21,3.25,36.54,36.54,0,0,1-9,1.09q-12.25,0-18.94-6.26t-6.7-18.37V234.31H136.93V219h10.59V202.29h19.9V219h17.09v15.31H167.42v27.94a9.38,9.38,0,0,0,2.23,6.7,8.29,8.29,0,0,0,6.32,2.36,12.79,12.79,0,0,0,8-2.55Z"/><path class="cls-4" d="M262.91,224.1q7.84,7.67,7.84,22.71v39.3h-19.9V249.87q0-8.16-3.57-12.18t-10.33-4q-7.53,0-12,4.66t-4.46,13.84v33.94h-19.9V191.45h19.9v33.16a26.54,26.54,0,0,1,9.57-6.06,34.65,34.65,0,0,1,12.24-2.1Q255.07,216.45,262.91,224.1Z"/><path class="cls-4" d="M360.77,255.72l22.46-10.11L360.77,235.5l14.31-20.08-24.42,2.25,2.26-24.42-20.27,14.5-9.92-22.64-9.93,22.64-20.27-14.5,2.26,24.42-24.42-2.25,14.31,20.08-22.45,10.11,22.45,10.11L270.37,275.8l24.42-2.26L292.53,298l20.27-14.49,9.93,22.64,9.92-22.64L352.92,298l-2.26-24.42,24.42,2.26Zm-5.19,8.13a33.83,33.83,0,0,1-13.4,12.57,43.91,43.91,0,0,1-38.85,0,33.64,33.64,0,0,1-13.45-12.57,36.72,36.72,0,0,1,0-36.48,33.64,33.64,0,0,1,13.45-12.57,43.91,43.91,0,0,1,38.85,0,33.83,33.83,0,0,1,13.4,12.57,36.79,36.79,0,0,1,0,36.48Z"/><path class="cls-5" d="M366.77,250.72l22.46-10.11L366.77,230.5l14.31-20.08-24.42,2.25,2.26-24.42-20.27,14.5-9.92-22.64-9.93,22.64-20.27-14.5,2.26,24.42-24.42-2.25,14.31,20.08-22.45,10.11,22.45,10.11L276.37,270.8l24.42-2.26L298.53,293l20.27-14.49,9.93,22.64,9.92-22.64L358.92,293l-2.26-24.42,24.42,2.26Zm-5.19,8.13a33.83,33.83,0,0,1-13.4,12.57,43.91,43.91,0,0,1-38.85,0,33.64,33.64,0,0,1-13.45-12.57,36.72,36.72,0,0,1,0-36.48,33.64,33.64,0,0,1,13.45-12.57,43.91,43.91,0,0,1,38.85,0,33.83,33.83,0,0,1,13.4,12.57,36.79,36.79,0,0,1,0,36.48Z"/><path class="cls-6" d="M363.77,252.72l22.46-10.11L363.77,232.5l14.31-20.08-24.42,2.25,2.26-24.42-20.27,14.5-9.92-22.64-9.93,22.64-20.27-14.5,2.26,24.42-24.42-2.25,14.31,20.08-22.45,10.11,22.45,10.11L273.37,272.8l24.42-2.26L295.53,295l20.27-14.49,9.93,22.64,9.92-22.64L355.92,295l-2.26-24.42,24.42,2.26Zm-5.19,8.13a33.83,33.83,0,0,1-13.4,12.57,43.91,43.91,0,0,1-38.85,0,33.64,33.64,0,0,1-13.45-12.57,36.72,36.72,0,0,1,0-36.48,33.64,33.64,0,0,1,13.45-12.57,43.91,43.91,0,0,1,38.85,0,33.83,33.83,0,0,1,13.4,12.57,36.79,36.79,0,0,1,0,36.48Z"/><path class="cls-4" d="M379.44,285a43.74,43.74,0,0,1-13-5.29l6.64-14.29a41.54,41.54,0,0,0,11.09,4.78,46.28,46.28,0,0,0,12.76,1.85q12.63,0,12.63-6.25c0-1.95-1.15-3.36-3.44-4.21a51.46,51.46,0,0,0-10.59-2.17,103.3,103.3,0,0,1-13.91-2.93,21.62,21.62,0,0,1-9.5-5.87q-4-4.21-4-12a18.78,18.78,0,0,1,3.76-11.55,24.21,24.21,0,0,1,11-7.84,46.85,46.85,0,0,1,17-2.81A67.12,67.12,0,0,1,414.34,218a40.62,40.62,0,0,1,11.92,4.41l-6.63,14.16a39.63,39.63,0,0,0-19.77-5.11q-6.39,0-9.57,1.79t-3.19,4.59q0,3.19,3.44,4.47a60.84,60.84,0,0,0,11,2.42,118.59,118.59,0,0,1,13.78,3,20.77,20.77,0,0,1,9.32,5.8q3.94,4.21,3.95,11.74a18.12,18.12,0,0,1-3.83,11.35,24.41,24.41,0,0,1-11.16,7.72,49.7,49.7,0,0,1-17.41,2.75A66.92,66.92,0,0,1,379.44,285Z"/><path class="cls-4" d="M438.25,242.22h36.11v16H438.25Z"/><path class="cls-4" d="M573.35,196.8v89.31H552.69V249.49H512.12v36.62H491.45V196.8h20.67V232h40.57V196.8Z"/><path class="cls-4" d="M645.3,224q8.55,7.59,8.55,22.9v39.17H635.23v-8.55q-5.62,9.57-20.93,9.57a32.55,32.55,0,0,1-13.71-2.68,20.58,20.58,0,0,1-8.87-7.4,19.28,19.28,0,0,1-3.06-10.72q0-9.57,7.21-15t22.26-5.49H634q0-6.51-4-10t-11.87-3.51A34.57,34.57,0,0,0,607.35,234a28.39,28.39,0,0,0-9,4.66l-7.15-13.91a43.44,43.44,0,0,1,13.46-6.12,60.13,60.13,0,0,1,16.14-2.17Q636.76,216.45,645.3,224Zm-17,47.33a13,13,0,0,0,5.61-6.95v-7H620.3q-12.24,0-12.25,8a7.16,7.16,0,0,0,3,6.06q3,2.24,8.23,2.23A17.39,17.39,0,0,0,628.34,271.37Z"/><path class="cls-4" d="M777,259.19l-9.57,9.44v17.48h-19.9V191.45h19.9V245l29.09-27.56h23.73l-28.58,29.09,31.13,39.55H798.65Z"/><path class="cls-5" d="M137.93,262.52v16.59H68.79V189.8h67.48v16.59H89.33v19.39h41.46v16.07H89.33v20.67Z"/><path class="cls-5" d="M196.36,275.79a20.36,20.36,0,0,1-7.21,3.25,36.54,36.54,0,0,1-9,1.09q-12.25,0-18.94-6.26t-6.7-18.37V227.31H143.93V212h10.59V195.29h19.9V212h17.09v15.31H174.42v27.94a9.38,9.38,0,0,0,2.23,6.7,8.29,8.29,0,0,0,6.32,2.36,12.79,12.79,0,0,0,8-2.55Z"/><path class="cls-5" d="M269.91,217.1q7.84,7.67,7.84,22.71v39.3h-19.9V242.87q0-8.16-3.57-12.18t-10.33-4q-7.53,0-12,4.66t-4.46,13.84v33.94h-19.9V184.45h19.9v33.16a26.54,26.54,0,0,1,9.57-6.06,34.65,34.65,0,0,1,12.24-2.1Q262.07,209.45,269.91,217.1Z"/><path class="cls-5" d="M386.44,278a43.74,43.74,0,0,1-13-5.29l6.64-14.29a41.54,41.54,0,0,0,11.09,4.78,46.28,46.28,0,0,0,12.76,1.85q12.63,0,12.63-6.25c0-1.95-1.15-3.36-3.44-4.21a51.46,51.46,0,0,0-10.59-2.17,103.3,103.3,0,0,1-13.91-2.93,21.62,21.62,0,0,1-9.5-5.87q-4-4.21-4-12a18.78,18.78,0,0,1,3.76-11.55,24.21,24.21,0,0,1,11-7.84,46.85,46.85,0,0,1,17-2.81A67.12,67.12,0,0,1,421.34,211a40.62,40.62,0,0,1,11.92,4.41l-6.63,14.16a39.63,39.63,0,0,0-19.77-5.11q-6.39,0-9.57,1.79t-3.19,4.59q0,3.19,3.44,4.47a60.84,60.84,0,0,0,11,2.42,118.59,118.59,0,0,1,13.78,3,20.77,20.77,0,0,1,9.32,5.8q3.94,4.22,3.95,11.74a18.12,18.12,0,0,1-3.83,11.35,24.41,24.41,0,0,1-11.16,7.72,49.7,49.7,0,0,1-17.41,2.75A66.92,66.92,0,0,1,386.44,278Z"/><path class="cls-5" d="M445.25,235.22h36.11v15.95H445.25Z"/><path class="cls-5" d="M580.35,189.8v89.31H559.69V242.49H519.12v36.62H498.45V189.8h20.67V225h40.57V189.8Z"/><path class="cls-5" d="M652.3,217q8.55,7.59,8.55,22.9v39.17H642.23v-8.55q-5.62,9.57-20.93,9.57a32.55,32.55,0,0,1-13.71-2.68,20.58,20.58,0,0,1-8.87-7.4,19.28,19.28,0,0,1-3.06-10.72q0-9.57,7.21-15t22.26-5.49H641q0-6.51-4-10t-11.87-3.51A34.57,34.57,0,0,0,614.35,227a28.39,28.39,0,0,0-9,4.66l-7.15-13.91a43.44,43.44,0,0,1,13.46-6.12,60.13,60.13,0,0,1,16.14-2.17Q643.76,209.45,652.3,217Zm-17,47.33a13,13,0,0,0,5.61-6.95v-7H627.3q-12.24,0-12.25,8a7.16,7.16,0,0,0,3,6.06q3,2.24,8.23,2.23A17.39,17.39,0,0,0,635.34,264.37Z"/><path class="cls-5" d="M784,252.19l-9.57,9.44v17.48h-19.9V184.45h19.9V238l29.09-27.56h23.73l-28.58,29.09,31.13,39.55H805.65Z"/><path class="cls-6" d="M134.93,265.52v16.59H65.79V192.8h67.48v16.59H86.33v19.39h41.46v16.07H86.33v20.67Z"/><path class="cls-6" d="M193.36,278.79a20.36,20.36,0,0,1-7.21,3.25,36.54,36.54,0,0,1-9,1.09q-12.25,0-18.94-6.26t-6.7-18.37V230.31H140.93V215h10.59V198.29h19.9V215h17.09v15.31H171.42v27.94a9.38,9.38,0,0,0,2.23,6.7,8.29,8.29,0,0,0,6.32,2.36,12.79,12.79,0,0,0,8-2.55Z"/><path class="cls-6" d="M266.91,220.1q7.84,7.67,7.84,22.71v39.3h-19.9V245.87q0-8.16-3.57-12.18t-10.33-4q-7.53,0-12,4.66t-4.46,13.84v33.94h-19.9V187.45h19.9v33.16a26.54,26.54,0,0,1,9.57-6.06,34.65,34.65,0,0,1,12.24-2.1Q259.07,212.45,266.91,220.1Z"/><path class="cls-6" d="M383.44,281a43.74,43.74,0,0,1-13-5.29l6.64-14.29a41.54,41.54,0,0,0,11.09,4.78,46.28,46.28,0,0,0,12.76,1.85q12.63,0,12.63-6.25c0-1.95-1.15-3.36-3.44-4.21a51.46,51.46,0,0,0-10.59-2.17,103.3,103.3,0,0,1-13.91-2.93,21.62,21.62,0,0,1-9.5-5.87q-4-4.21-4-12a18.78,18.78,0,0,1,3.76-11.55,24.21,24.21,0,0,1,11-7.84,46.85,46.85,0,0,1,17-2.81A67.12,67.12,0,0,1,418.34,214a40.62,40.62,0,0,1,11.92,4.41l-6.63,14.16a39.63,39.63,0,0,0-19.77-5.11q-6.39,0-9.57,1.79t-3.19,4.59q0,3.19,3.44,4.47a60.84,60.84,0,0,0,11,2.42,118.59,118.59,0,0,1,13.78,3,20.77,20.77,0,0,1,9.32,5.8q3.94,4.22,3.95,11.74a18.12,18.12,0,0,1-3.83,11.35,24.41,24.41,0,0,1-11.16,7.72,49.7,49.7,0,0,1-17.41,2.75A66.92,66.92,0,0,1,383.44,281Z"/><path class="cls-6" d="M442.25,238.22h36.11v15.95H442.25Z"/><path class="cls-6" d="M577.35,192.8v89.31H556.69V245.49H516.12v36.62H495.45V192.8h20.67V228h40.57V192.8Z"/><path class="cls-6" d="M649.3,220q8.55,7.59,8.55,22.9v39.17H639.23v-8.55q-5.62,9.57-20.93,9.57a32.55,32.55,0,0,1-13.71-2.68,20.58,20.58,0,0,1-8.87-7.4,19.28,19.28,0,0,1-3.06-10.72q0-9.57,7.21-15t22.26-5.49H638q0-6.51-4-10t-11.87-3.51A34.57,34.57,0,0,0,611.35,230a28.39,28.39,0,0,0-9,4.66l-7.15-13.91a43.44,43.44,0,0,1,13.46-6.12,60.13,60.13,0,0,1,16.14-2.17Q640.76,212.45,649.3,220Zm-17,47.33a13,13,0,0,0,5.61-6.95v-7H624.3q-12.24,0-12.25,8a7.16,7.16,0,0,0,3,6.06q3,2.24,8.23,2.23A17.39,17.39,0,0,0,632.34,267.37Z"/><path class="cls-6" d="M781,255.19l-9.57,9.44v17.48h-19.9V187.45h19.9V241l29.09-27.56h23.73l-28.58,29.09,31.13,39.55H802.65Z"/><text class="cls-7" transform="translate(773.1 311.64)"><tspan class="cls-8">2</tspan><tspan class="cls-9" x="12.93" y="0">0</tspan><tspan x="27.73" y="0">23</tspan></text><path class="cls-4" d="M737.51,256.8l-12.89-7.93,12.89-7.93-15-1.82.83-1.23-8.49,4.56q-3.6-6.34-10.37-6.34a11.7,11.7,0,0,0-8.65,3.43q-3.43,3.42-3.43,9.33t3.43,9.34a11.7,11.7,0,0,0,8.65,3.43q6.85,0,10.37-6.34l8.56,4.67-.9-1.34Z"/><path class="cls-4" d="M719.37,215.73l-10.56,9.71a23.81,23.81,0,0,1,8.37,2.7Z"/><path class="cls-4" d="M719.37,282l-2.2-12.45a23.65,23.65,0,0,1-8.37,2.74Z"/><path class="cls-4" d="M691.31,269.56a22.79,22.79,0,0,1-9.17-8.43,24.41,24.41,0,0,1,0-24.51,22.81,22.81,0,0,1,9.17-8.44,28.41,28.41,0,0,1,13.24-3,33.34,33.34,0,0,1,3.51.19l-3.42-14.59-6.09,14.2-4.81-2.31a61.72,61.72,0,0,1,36.68-32.32c-1.67-.14-3.35-.26-5.06-.26a58.83,58.83,0,1,0,0,117.65c1.8,0,3.57-.08,5.33-.24a61.77,61.77,0,0,1-36.93-32.35l4.79-2.3,6.09,14.2,3.42-14.6a30.82,30.82,0,0,1-3.51.2A28.3,28.3,0,0,1,691.31,269.56Z"/><path class="cls-4" d="M719.87,267.78l11.19,3.62-6.36-9.47A18,18,0,0,1,719.87,267.78Z"/><path class="cls-4" d="M724.69,235.84l6.37-9.5L719.91,230A17.88,17.88,0,0,1,724.69,235.84Z"/><path class="cls-5" d="M742.51,252.8l-12.89-7.93,12.89-7.93-15-1.82.83-1.23-8.49,4.56q-3.6-6.34-10.37-6.34a11.7,11.7,0,0,0-8.65,3.43q-3.43,3.42-3.43,9.33t3.43,9.34a11.7,11.7,0,0,0,8.65,3.43q6.85,0,10.37-6.34l8.56,4.67-.9-1.34Z"/><path class="cls-5" d="M724.37,211.73l-10.56,9.71a23.81,23.81,0,0,1,8.37,2.7Z"/><path class="cls-5" d="M724.37,278l-2.2-12.45a23.65,23.65,0,0,1-8.37,2.74Z"/><path class="cls-5" d="M696.31,265.56a22.79,22.79,0,0,1-9.17-8.43,24.41,24.41,0,0,1,0-24.51,22.81,22.81,0,0,1,9.17-8.44,28.41,28.41,0,0,1,13.24-3,33.34,33.34,0,0,1,3.51.19l-3.42-14.59-6.09,14.2-4.81-2.31a61.72,61.72,0,0,1,36.68-32.32c-1.67-.14-3.35-.26-5.06-.26a58.83,58.83,0,1,0,0,117.65c1.8,0,3.57-.08,5.33-.24a61.77,61.77,0,0,1-36.93-32.35l4.79-2.3,6.09,14.2,3.42-14.6a30.82,30.82,0,0,1-3.51.2A28.3,28.3,0,0,1,696.31,265.56Z"/><path class="cls-5" d="M724.87,263.78l11.19,3.62-6.36-9.47A18,18,0,0,1,724.87,263.78Z"/><path class="cls-5" d="M729.69,231.84l6.37-9.5L724.91,226A17.88,17.88,0,0,1,729.69,231.84Z"/><path class="cls-6" d="M739.51,253.8l-12.89-7.93,12.89-7.93-15-1.82.83-1.23-8.49,4.56q-3.6-6.34-10.37-6.34a11.7,11.7,0,0,0-8.65,3.43q-3.43,3.42-3.43,9.33t3.43,9.34a11.7,11.7,0,0,0,8.65,3.43q6.85,0,10.37-6.34l8.56,4.67-.9-1.34Z"/><path class="cls-6" d="M721.37,212.73l-10.56,9.71a23.81,23.81,0,0,1,8.37,2.7Z"/><path class="cls-6" d="M721.37,279l-2.2-12.45a23.65,23.65,0,0,1-8.37,2.74Z"/><path class="cls-6" d="M693.31,266.56a22.79,22.79,0,0,1-9.17-8.43,24.41,24.41,0,0,1,0-24.51,22.81,22.81,0,0,1,9.17-8.44,28.41,28.41,0,0,1,13.24-3,33.34,33.34,0,0,1,3.51.19l-3.42-14.59-6.09,14.2-4.81-2.31a61.72,61.72,0,0,1,36.68-32.32c-1.67-.14-3.35-.26-5.06-.26a58.83,58.83,0,1,0,0,117.65c1.8,0,3.57-.08,5.33-.24a61.77,61.77,0,0,1-36.93-32.35l4.79-2.3,6.09,14.2,3.42-14.6a30.82,30.82,0,0,1-3.51.2A28.3,28.3,0,0,1,693.31,266.56Z"/><path class="cls-6" d="M721.87,264.78l11.19,3.62-6.36-9.47A18,18,0,0,1,721.87,264.78Z"/><path class="cls-6" d="M726.69,232.84l6.37-9.5L721.91,227A17.88,17.88,0,0,1,726.69,232.84Z"/></g></g></svg>